<svg height="512" style="enable-background:new 0 0 512 512;" version="1.1" width="512" xml:space="preserve" xmlns="http://www.w3.org/2000/svg" xmlns:xlink="http://www.w3.org/1999/xlink"><rect id="backgroundrect" width="100%" height="100%" x="0" y="0" fill="none" stroke="none"/><g class="currentLayer" style=""><title>Layer 1</title><path d="M370.1000061035156,182.1695683002472 H399 v47.29999923706055 l81,-83.19999694824219 L399,64.86956524848938 v54 h-28.899999618530273 c-82.69999694824219,0 -129.39999389648438,61.900001525878906 -170.60000610351562,116.5 c-37,49.099998474121094 -69,95.4000015258789 -120.5999984741211,95.4000015258789 H32 v63.29999923706055 h46.900001525878906 c82.69999694824219,0 129.39999389648438,-65.80000305175781 170.60000610351562,-120.4000015258789 C286.5,224.56956219673157 318.3999938964844,182.1695683002472 370.1000061035156,182.1695683002472 zM153.1999969482422,218.36956524848938 c3.5,-4.599999904632568 7.099999904632568,-9.300000190734863 10.699999809265137,-14.100000381469727 c8.800000190734863,-11.600000381469727 18,-23.899999618530273 28,-36.099998474121094 c-29.600000381469727,-27.899999618530273 -65.30000305175781,-48.5 -113,-48.5 H32 v63.29999923706055 c0,0 13.300000190734863,-0.6000000238418579 46.900001525878906,0 C111.4000015258789,183.6695683002472 131.8000030517578,197.06956219673157 153.1999969482422,218.36956524848938 zM399,331.26955914497375 h-28.899999618530273 c-31.5,0 -55.70000076293945,-15.800000190734863 -78.19999694824219,-39.29999923706055 c-2.200000047683716,3 -4.5,6 -6.800000190734863,9 c-9.899999618530273,13.100000381469727 -20.5,27.200000762939453 -32.20000076293945,41.099998474121094 c30.399999618530273,29.899999618530273 67.19999694824219,52.5 117.19999694824219,52.5 H399 V448.8695652484894 l81,-81.4000015258789 l-81,-83.19999694824219 V331.26955914497375 z" id="svg_1" class="selected" fill="#41e841" fill-opacity="1"/></g></svg>